<?xml version="1.0" encoding="utf-8"?>
<!-- Generator: Adobe Illustrator 15.1.0, SVG Export Plug-In . SVG Version: 6.00 Build 0)  -->
<!DOCTYPE svg PUBLIC "-//W3C//DTD SVG 1.1//EN" "http://www.w3.org/Graphics/SVG/1.1/DTD/svg11.dtd">
<svg version="1.1" id="Layer_1" xmlns="http://www.w3.org/2000/svg" xmlns:xlink="http://www.w3.org/1999/xlink" x="0px" y="0px"
	 width="139.01px" height="102.585px" viewBox="0 0 139.01 102.585" enable-background="new 0 0 139.01 102.585"
	 xml:space="preserve">
<g>
	<path fill="#6FC067" d="M0,74.895V26.58h13.207c1.998,0,3.801,0.27,5.406,0.809c1.606,0.539,2.977,1.297,4.111,2.275
		c1.134,0.977,2.004,2.15,2.611,3.52c0.605,1.371,0.909,2.875,0.909,4.516c0,1.393-0.19,2.695-0.573,3.908
		c-0.382,1.213-0.932,2.318-1.65,3.318s-1.6,1.865-2.645,2.594c-1.045,0.73-2.229,1.309-3.555,1.736v0.135
		c1.617,0.156,3.088,0.549,4.414,1.178c1.324,0.629,2.459,1.449,3.402,2.461c0.943,1.01,1.673,2.195,2.189,3.553
		c0.518,1.359,0.775,2.848,0.775,4.465c0,2.045-0.371,3.914-1.111,5.609c-0.742,1.697-1.781,3.156-3.117,4.381
		s-2.926,2.172-4.768,2.846s-3.874,1.012-6.098,1.012H0z M4.48,30.691V47.84h6.267c1.64,0,3.122-0.213,4.447-0.641
		c1.325-0.426,2.46-1.043,3.403-1.852s1.668-1.787,2.172-2.932c0.506-1.146,0.759-2.438,0.759-3.875c0-5.232-3.257-7.85-9.771-7.85
		H4.48z M4.48,51.883v18.936h8.322c3.57,0,6.316-0.838,8.236-2.512c1.922-1.672,2.881-4.047,2.881-7.125
		c0-6.199-4.211-9.299-12.634-9.299H4.48z"/>
	<path fill="#6FC067" d="M38.543,74.895V26.58h23.55v4.111H43.023v17.721h17.654v4.043H43.023v18.363h20.147v4.076H38.543z"/>
	<path fill="#6FC067" d="M99.558,74.895L92.28,61.047c-0.72-1.369-1.415-2.516-2.089-3.436c-0.674-0.922-1.37-1.656-2.089-2.207
		c-0.72-0.551-1.488-0.943-2.308-1.18c-0.82-0.236-1.735-0.354-2.746-0.354h-5.323v21.023h-4.481V26.58h13.915
		c1.819,0,3.577,0.27,5.272,0.809s3.206,1.338,4.531,2.393c1.326,1.057,2.387,2.381,3.184,3.977
		c0.798,1.594,1.197,3.447,1.197,5.559c0,1.707-0.259,3.279-0.775,4.717c-0.518,1.438-1.252,2.711-2.207,3.824
		c-0.955,1.111-2.111,2.055-3.471,2.83c-1.358,0.773-2.892,1.354-4.598,1.734v0.135c0.65,0.27,1.246,0.617,1.785,1.045
		c0.539,0.426,1.061,0.943,1.566,1.549c0.506,0.607,1.006,1.303,1.5,2.09c0.493,0.785,1.01,1.684,1.549,2.695l8.12,14.959H99.558z
		 M77.726,30.691v19.104h8.019c1.617,0,3.1-0.236,4.447-0.709c1.348-0.471,2.498-1.145,3.453-2.021
		c0.955-0.875,1.695-1.932,2.225-3.166c0.527-1.236,0.791-2.629,0.791-4.178c0-2.809-0.904-5.016-2.713-6.621
		c-1.808-1.605-4.418-2.408-7.832-2.408H77.726z"/>
	<path fill="#6FC067" d="M125.063,30.691v44.203h-4.481V30.691h-13.915V26.58h32.344v4.111H125.063z"/>
</g>
<g>
	<path fill="#006666" d="M79.437,92.393c-6.669,6.205-17.125,6.094-23.619-0.35c-2.655-2.641-4.241-5.938-4.76-9.365l-5.695,0.189
		c0.584,4.814,2.73,9.467,6.446,13.158c8.694,8.637,22.735,8.742,31.627,0.336l4.806,4.777l0.824-15.111l-16.001,0.037
		L79.437,92.393z"/>
	<path fill="#006666" d="M54.993,10.191c6.675-6.203,17.131-6.094,23.618,0.35c2.655,2.637,4.242,5.936,4.762,9.363l5.694-0.186
		c-0.587-4.816-2.732-9.469-6.447-13.162c-8.701-8.633-22.739-8.738-31.627-0.332l-4.811-4.775L45.36,16.561l16.002-0.041
		L54.993,10.191z"/>
</g>
</svg>

