<?xml version="1.0" encoding="utf-8"?>
<!-- Generator: Adobe Illustrator 15.1.0, SVG Export Plug-In . SVG Version: 6.00 Build 0)  -->
<!DOCTYPE svg PUBLIC "-//W3C//DTD SVG 1.1//EN" "http://www.w3.org/Graphics/SVG/1.1/DTD/svg11.dtd">
<svg version="1.1" id="Layer_1" xmlns="http://www.w3.org/2000/svg" xmlns:xlink="http://www.w3.org/1999/xlink" x="0px" y="0px"
	 width="194.899px" height="61.319px" viewBox="0 0 194.899 61.319" enable-background="new 0 0 194.899 61.319"
	 xml:space="preserve">
<path fill="#036667" d="M61.319,57.231c0,2.258-1.83,4.088-4.088,4.088H4.088C1.83,61.319,0,59.489,0,57.231V4.088
	C0,1.83,1.83,0,4.088,0h53.144c2.258,0,4.088,1.83,4.088,4.088V57.231z"/>
<g>
	<path fill="#FFFFFF" d="M17.973,33.548l17.496-7.687l-17.496-7.686l2.086-4.7l22.646,10.058v4.659L20.059,38.209L17.973,33.548z
		 M44.014,38.779L21.366,48.878l-2.044-4.701L41.928,34.2L44.014,38.779z"/>
</g>
<g>
	<path fill="#71C169" d="M92.59,48.279c-3.046,1.88-6.796,2.82-11.252,2.82H69.933V8.851h10.426c4.291,0,7.856,0.826,10.699,2.482
		c2.84,1.657,4.262,4.384,4.262,8.187c0,2.537-0.757,4.569-2.268,6.102c-1.514,1.533-3.396,2.567-5.644,3.097
		c6.501,1.104,9.751,4.559,9.751,10.363C97.159,43.333,95.637,46.398,92.59,48.279z M87.716,14.767
		c-1.432-1.042-3.476-1.563-6.132-1.563h-6.315v13.613h6.807c5.189,0,7.786-2.33,7.786-6.99
		C89.861,17.497,89.147,15.809,87.716,14.767z M89.095,33.011c-1.614-1.186-3.832-1.78-6.652-1.78h-7.174v15.454h6.99
		c2.574,0,4.761-0.531,6.561-1.594c1.799-1.063,2.699-3.006,2.699-5.826C91.519,36.28,90.71,34.196,89.095,33.011z"/>
	<path fill="#71C169" d="M109.239,27.492h15.697v4.353h-15.697v14.963h19.255V51.1h-24.528V8.851h23.975l-0.612,4.415h-18.089
		V27.492z"/>
	<path fill="#71C169" d="M158.539,28.258c-1.883,1.982-4.376,3.364-7.481,4.139L163.627,51.1h-6.378L145.66,33.011h-5.703V51.1
		h-5.273V8.851h10.793c5.231,0,9.188,1.002,11.864,3.004c2.679,2.004,4.019,4.968,4.019,8.893
		C161.359,23.773,160.417,26.276,158.539,28.258z M153.387,14.921c-1.555-1.185-3.986-1.779-7.298-1.779h-6.132v15.697h6.194
		c3.147,0,5.529-0.643,7.144-1.93c1.615-1.288,2.422-3.344,2.422-6.162C155.717,18.048,154.939,16.108,153.387,14.921z"/>
	<path fill="#71C169" d="M181.594,51.1h-5.334v-37.65h-13.184V8.851h31.823l-0.551,4.599h-12.755V51.1z"/>
</g>
</svg>
